<svg width="90" height="90" viewBox="0 0 90 90" fill="none" xmlns="http://www.w3.org/2000/svg">
<g clip-path="url(#clip0_8273_3675)">
<path d="M45 90C69.8528 90 90 69.8528 90 45C90 20.1472 69.8528 0 45 0C20.1472 0 0 20.1472 0 45C0 69.8528 20.1472 90 45 90Z" fill="#00E6A0"/>
<path d="M52.0158 34.5254L38.3474 26.7134C35.927 25.3247 32.9349 25.3247 30.5145 26.7134L16.8461 34.5254C14.4258 35.914 12.9297 38.4741 12.9297 41.2436V56.8754C12.9297 59.6449 14.4258 62.205 16.8461 63.5936L30.5145 71.4134C32.9349 72.802 35.927 72.802 38.3474 71.4134L52.0158 63.5936C54.4361 62.205 55.9322 59.6449 55.9322 56.8754V41.2436C55.9322 38.4741 54.444 35.914 52.0158 34.5254Z" fill="white" fill-opacity="0.2"/>
<path d="M63.3213 52.6797L63.4718 36.9579C63.5031 34.1712 62.0211 31.6042 59.592 30.238L45.9013 22.5074C43.4723 21.1412 40.4633 21.1671 38.0098 22.5836L24.1617 30.5788C21.7082 31.9953 20.1813 34.5882 20.15 37.3749L19.9926 53.1007C19.9613 55.8874 21.4433 58.4544 23.8724 59.8206L37.57 67.5472C39.999 68.9134 43.0079 68.8875 45.4614 67.471L59.3095 59.4758C61.763 58.0592 63.2938 55.4731 63.3213 52.6797Z" fill="white" fill-opacity="0.4"/>
<path d="M70.3251 48.6743L70.4893 32.9762C70.523 30.1938 69.044 27.6319 66.6174 26.2699L52.9403 18.5631C50.5138 17.2011 47.5063 17.2296 45.0528 18.6461L31.2047 26.6413C28.7512 28.0578 27.2228 30.6481 27.189 33.4306L27.018 49.1327C26.9842 51.9152 28.4633 54.477 30.8899 55.839L44.5738 63.5419C47.0004 64.9039 50.0078 64.8754 52.4613 63.4589L66.3094 55.4636C68.7629 54.0471 70.2952 51.4635 70.3251 48.6743Z" fill="white"/>
</g>
<defs>
<clipPath id="clip0_8273_3675">
<rect width="90" height="90" fill="white"/>
</clipPath>
</defs>
</svg>
