<svg width="336" height="335" viewBox="0 0 336 335" fill="none" xmlns="http://www.w3.org/2000/svg">
<g clip-path="url(#clip0_8277_851)">
<path d="M168 335C260.508 335 335.5 260.008 335.5 167.5C335.5 74.9923 260.508 0 168 0C75.4923 0 0.5 74.9923 0.5 167.5C0.5 260.008 75.4923 335 168 335Z" fill="#00E6A0"/>
<path d="M194.112 128.511L143.235 99.4328C134.226 94.264 123.089 94.264 114.08 99.4328L63.2029 128.511C54.1937 133.68 48.625 143.209 48.625 153.517V211.703C48.625 222.011 54.1937 231.54 63.2029 236.709L114.08 265.816C123.089 270.985 134.226 270.985 143.235 265.816L194.112 236.709C203.121 231.54 208.69 222.011 208.69 211.703V153.517C208.69 143.209 203.15 133.68 194.112 128.511Z" fill="white" fill-opacity="0.2"/>
<path d="M236.195 196.086L236.756 137.566C236.872 127.193 231.356 117.638 222.314 112.553L171.354 83.7778C162.313 78.6925 151.113 78.7889 141.981 84.0615L90.4349 113.821C81.3025 119.094 75.619 128.745 75.5023 139.118L74.9166 197.653C74.7999 208.026 80.3164 217.581 89.3578 222.666L140.343 251.426C149.385 256.511 160.585 256.415 169.717 251.142L221.263 221.382C230.395 216.11 236.093 206.483 236.195 196.086Z" fill="white" fill-opacity="0.4"/>
<path d="M262.268 181.177L262.88 122.745C263.005 112.388 257.5 102.853 248.468 97.7829L197.559 69.0963C188.526 64.0266 177.332 64.1326 168.199 69.4053L116.654 99.1652C107.521 104.438 101.832 114.079 101.706 124.436L101.07 182.883C100.944 193.24 106.449 202.776 115.482 207.845L166.416 236.517C175.449 241.587 186.643 241.481 195.775 236.208L247.321 206.448C256.454 201.176 262.157 191.559 262.268 181.177Z" fill="white"/>
</g>
<defs>
<clipPath id="clip0_8277_851">
<rect width="335" height="335" fill="white" transform="translate(0.5)"/>
</clipPath>
</defs>
</svg>
