<svg width="25" height="24" viewBox="0 0 25 24" fill="none" xmlns="http://www.w3.org/2000/svg">
<path d="M8.48275 17.4948L7.88937 17.3034C7.53628 17.1895 7.35648 16.7814 7.49961 16.4263C7.96815 15.2639 8.35008 14.2253 8.6797 13.1978C8.4198 13.1843 8.15312 13.169 7.87856 13.152C7.57612 13.1333 7.33074 12.8885 7.29911 12.5745L7.22617 11.8506C7.18563 11.4482 7.50599 11.1062 7.89336 11.1349C8.36828 11.1701 8.81978 11.2001 9.25305 11.2247C9.58192 9.96708 9.8677 8.62375 10.1678 7.00564C10.2415 6.60835 10.6414 6.37442 11.0039 6.51939L11.6562 6.78016C11.939 6.89325 12.1024 7.20357 12.0415 7.51281C11.7594 8.94472 11.4886 10.1586 11.1884 11.3002C12.1124 11.3169 12.9796 11.3011 13.8598 11.2496C13.5649 10.1227 13.2979 8.92358 13.02 7.51281C12.959 7.20357 13.1225 6.89325 13.4053 6.78016L14.0575 6.51939C14.4201 6.37442 14.82 6.60835 14.8937 7.00564C15.1827 8.56406 15.4585 9.86759 15.7722 11.0852C16.2663 11.0302 16.7778 10.9645 17.3172 10.8878C17.6834 10.8356 18.0152 11.1222 18.0294 11.5071L18.0532 12.1538C18.0655 12.4882 17.8302 12.7777 17.5116 12.8196C17.0944 12.8743 16.6951 12.924 16.3091 12.9686C16.6551 14.0715 17.0585 15.1774 17.5619 16.4263C17.705 16.7814 17.5252 17.1895 17.1721 17.3034L16.5787 17.4948C16.2719 17.5937 15.9426 17.4318 15.8214 17.1219C15.2459 15.6513 14.7931 14.398 14.4056 13.1554C13.1346 13.2547 11.9406 13.2907 10.6207 13.2676C10.241 14.4736 9.79828 15.6956 9.24013 17.1219C9.11887 17.4318 8.78955 17.5937 8.48275 17.4948Z" fill="white"/>
<path d="M22.5174 11.3904C24.7028 17.7412 19.5108 22.4132 16.6417 23.9553C21.1774 20.1175 19.3734 14.3345 19.2188 11.3904C19.0862 8.86696 21.3835 8.81439 22.5174 11.3904Z" fill="white"/>
<path d="M4.41571 19.2659C-1.05402 15.501 0.377699 8.59157 1.77727 5.60747C0.383991 11.4481 5.21545 14.9896 7.06232 17.2576C8.64535 19.2015 6.83294 20.6424 4.41571 19.2659Z" fill="white"/>
<path d="M3.29913 6.96517C5.06884 0.481143 11.9476 -0.320885 15.1658 0.088605C9.29317 0.589465 7.5291 6.38524 6.00462 8.89012C4.69791 11.0372 2.78425 9.73969 3.29913 6.96517Z" fill="white"/>
<path d="M15.9429 22.4065C10.5006 26.2125 4.72619 22.3161 2.51927 19.8922C7.33318 23.3595 12.3373 20.0769 15.0838 19.1579C17.4379 18.3702 18.086 20.6189 15.9429 22.4065Z" fill="white"/>
<path d="M14.7838 1.81643C21.3824 1.78919 24.0107 8.32263 24.5 11.5927C22.4296 5.96492 16.4819 5.81043 13.704 4.99567C11.3229 4.29731 12.0262 2.06598 14.7838 1.81643Z" fill="white"/>
</svg>
