<svg width="16" height="17" viewBox="0 0 16 17" fill="none" xmlns="http://www.w3.org/2000/svg">
<path d="M1.82625 16.3667C1.35196 16.3667 0.945941 16.1978 0.60819 15.86C0.270438 15.5223 0.101562 15.1163 0.101562 14.642V2.56917C0.101562 2.09488 0.270438 1.68886 0.60819 1.35111C0.945941 1.01336 1.35196 0.844482 1.82625 0.844482H7.86266V2.56917H1.82625V14.642H13.8991V8.60558H15.6238V14.642C15.6238 15.1163 15.4549 15.5223 15.1171 15.86C14.7794 16.1978 14.3734 16.3667 13.8991 16.3667H1.82625ZM5.87927 11.7963L4.67199 10.589L12.6918 2.56917H9.58735V0.844482H15.6238V6.88089H13.8991V3.77645L5.87927 11.7963Z" fill="#101619"/>
</svg>
